<?xml version="1.0" encoding="UTF-8" standalone="no"?>
<!-- Created with Inkscape (http://www.inkscape.org/) -->

<svg
   xmlns:dc="http://purl.org/dc/elements/1.1/"
   xmlns:cc="http://creativecommons.org/ns#"
   xmlns:rdf="http://www.w3.org/1999/02/22-rdf-syntax-ns#"
   xmlns:svg="http://www.w3.org/2000/svg"
   xmlns="http://www.w3.org/2000/svg"
   xmlns:sodipodi="http://sodipodi.sourceforge.net/DTD/sodipodi-0.dtd"
   xmlns:inkscape="http://www.inkscape.org/namespaces/inkscape"
   width="65.6334mm"
   height="39.589981mm"
   viewBox="0 0 65.6334 39.589981"
   version="1.1"
   id="svg8"
   inkscape:version="0.92.4 (5da689c313, 2019-01-14)"
   sodipodi:docname="opencadd-logo.svg"
   inkscape:export-filename="C:\Users\Jaime\Desktop\opencadd.png"
   inkscape:export-xdpi="309.60001"
   inkscape:export-ydpi="309.60001">
  <defs
     id="defs2">
    <filter
       filterUnits="userSpaceOnUse"
       id="shadowFilter-g8ae0ad9bfe_0_840.3">
      <feGaussianBlur
         id="feGaussianBlur4559"
         result="blur"
         stdDeviation="5.0"
         in="SourceAlpha" />
      <feComponentTransfer
         id="feComponentTransfer4569"
         in="blur"
         style="color-interpolation-filters:sRGB">
        <feFuncR
           id="feFuncR4561"
           intercept="0.0"
           slope="0"
           type="linear" />
        <feFuncG
           id="feFuncG4563"
           intercept="0.0"
           slope="0"
           type="linear" />
        <feFuncB
           id="feFuncB4565"
           intercept="0.0"
           slope="0"
           type="linear" />
        <feFuncA
           id="feFuncA4567"
           intercept="0"
           slope="0.5"
           type="linear" />
      </feComponentTransfer>
    </filter>
    <filter
       filterUnits="userSpaceOnUse"
       id="shadowFilter-g8ae0ad9bfe_0_840.4">
      <feGaussianBlur
         id="feGaussianBlur4583"
         result="blur"
         stdDeviation="5.0"
         in="SourceAlpha" />
      <feComponentTransfer
         id="feComponentTransfer4593"
         in="blur"
         style="color-interpolation-filters:sRGB">
        <feFuncR
           id="feFuncR4585"
           intercept="0.0"
           slope="0"
           type="linear" />
        <feFuncG
           id="feFuncG4587"
           intercept="0.0"
           slope="0"
           type="linear" />
        <feFuncB
           id="feFuncB4589"
           intercept="0.0"
           slope="0"
           type="linear" />
        <feFuncA
           id="feFuncA4591"
           intercept="0"
           slope="0.5"
           type="linear" />
      </feComponentTransfer>
    </filter>
    <filter
       style="color-interpolation-filters:sRGB"
       inkscape:label="Drop Shadow"
       id="filter4954">
      <feFlood
         flood-opacity="0.498039"
         flood-color="rgb(0,0,0)"
         result="flood"
         id="feFlood4944" />
      <feComposite
         in="flood"
         in2="SourceGraphic"
         operator="in"
         result="composite1"
         id="feComposite4946" />
      <feGaussianBlur
         in="composite1"
         stdDeviation="5"
         result="blur"
         id="feGaussianBlur4948" />
      <feOffset
         dx="4.57967e-15"
         dy="4.57967e-15"
         result="offset"
         id="feOffset4950" />
      <feComposite
         in="offset"
         in2="SourceGraphic"
         operator="out"
         result="composite2"
         id="feComposite4952" />
    </filter>
    <filter
       style="color-interpolation-filters:sRGB"
       inkscape:label="Drop Shadow"
       id="filter5026">
      <feFlood
         flood-opacity="0.498039"
         flood-color="rgb(0,0,0)"
         result="flood"
         id="feFlood5016" />
      <feComposite
         in="flood"
         in2="SourceGraphic"
         operator="in"
         result="composite1"
         id="feComposite5018" />
      <feGaussianBlur
         in="composite1"
         stdDeviation="5"
         result="blur"
         id="feGaussianBlur5020" />
      <feOffset
         dx="4.57967e-15"
         dy="4.57967e-15"
         result="offset"
         id="feOffset5022" />
      <feComposite
         in="SourceGraphic"
         in2="offset"
         operator="over"
         result="composite2"
         id="feComposite5024" />
    </filter>
  </defs>
  <sodipodi:namedview
     id="base"
     pagecolor="#ffffff"
     bordercolor="#666666"
     borderopacity="1.0"
     inkscape:pageopacity="0.0"
     inkscape:pageshadow="2"
     inkscape:zoom="1.979899"
     inkscape:cx="73.414428"
     inkscape:cy="-77.388371"
     inkscape:document-units="mm"
     inkscape:current-layer="g4607"
     showgrid="false"
     inkscape:window-width="2560"
     inkscape:window-height="1361"
     inkscape:window-x="-9"
     inkscape:window-y="-9"
     inkscape:window-maximized="1" />
  <metadata
     id="metadata5">
    <rdf:RDF>
      <cc:Work
         rdf:about="">
        <dc:format>image/svg+xml</dc:format>
        <dc:type
           rdf:resource="http://purl.org/dc/dcmitype/StillImage" />
        <dc:title></dc:title>
      </cc:Work>
    </rdf:RDF>
  </metadata>
  <g
     inkscape:label="Layer 1"
     inkscape:groupmode="layer"
     id="layer1"
     transform="translate(-68.211182,-90.650879)">
    <g
       style="fill:none;stroke:none;stroke-linecap:square;stroke-miterlimit:10"
       id="g4692"
       transform="matrix(0.26458333,0,0,0.26458333,31.729752,39.808664)">
      <g
         id="g4607"
         clip-path="url(#g8ae0ad9bfe_0_840.0)">
        <defs
           id="defs4572">
          <filter
             filterUnits="userSpaceOnUse"
             id="filter4663">
            <feGaussianBlur
               id="feGaussianBlur4651"
               result="blur"
               stdDeviation="5.0"
               in="SourceAlpha" />
            <feComponentTransfer
               id="feComponentTransfer4661"
               in="blur"
               style="color-interpolation-filters:sRGB">
              <feFuncR
                 id="feFuncR4653"
                 intercept="0.0"
                 slope="0"
                 type="linear" />
              <feFuncG
                 id="feFuncG4655"
                 intercept="0.0"
                 slope="0"
                 type="linear" />
              <feFuncB
                 id="feFuncB4657"
                 intercept="0.0"
                 slope="0"
                 type="linear" />
              <feFuncA
                 id="feFuncA4659"
                 intercept="0"
                 slope="0.5"
                 type="linear" />
            </feComponentTransfer>
          </filter>
        </defs>
        <defs
           id="defs4596">
          <filter
             filterUnits="userSpaceOnUse"
             id="filter4683">
            <feGaussianBlur
               id="feGaussianBlur4671"
               result="blur"
               stdDeviation="5.0"
               in="SourceAlpha" />
            <feComponentTransfer
               id="feComponentTransfer4681"
               in="blur"
               style="color-interpolation-filters:sRGB">
              <feFuncR
                 id="feFuncR4673"
                 intercept="0.0"
                 slope="0"
                 type="linear" />
              <feFuncG
                 id="feFuncG4675"
                 intercept="0.0"
                 slope="0"
                 type="linear" />
              <feFuncB
                 id="feFuncB4677"
                 intercept="0.0"
                 slope="0"
                 type="linear" />
              <feFuncA
                 id="feFuncA4679"
                 intercept="0"
                 slope="0.5"
                 type="linear" />
            </feComponentTransfer>
          </filter>
        </defs>
        <g
           id="g5034">
          <g
             id="g8ae0ad9bfe_0_840.3"
             style="fill:none;stroke:none;stroke-linecap:square;stroke-miterlimit:10"
             transform="translate(119.41276,-160.00105)">
            <path
               style="fill:#000000;fill-rule:nonzero"
               inkscape:connector-curvature="0"
               d="m 73.86195,425.777 q -2.21875,0 -4.015625,-1 -1.78125,-1.01563 -2.8125,-2.79688 -1.03125,-1.79687 -1.03125,-4.0625 0,-2.25 1.03125,-4.03125 1.03125,-1.79687 2.8125,-2.79687 1.796875,-1 4.015625,-1 2.234375,0 4.015625,1 1.796875,1 2.8125,2.79687 1.015625,1.78125 1.015625,4.03125 0,2.26563 -1.015625,4.0625 -1.015625,1.78125 -2.8125,2.79688 -1.78125,1 -4.015625,1 z m 0,-1.84375 q 1.640625,0 2.953125,-0.75 1.3125,-0.75 2.03125,-2.125 0.734375,-1.375 0.734375,-3.14063 0,-1.75 -0.734375,-3.125 -0.71875,-1.39062 -2.03125,-2.125 -1.3125,-0.75 -2.953125,-0.75 -1.640625,0 -2.953125,0.75 -1.296875,0.73438 -2.046875,2.125 -0.75,1.375 -0.75,3.125 0,1.76563 0.75,3.14063 0.75,1.375 2.046875,2.125 1.3125,0.75 2.953125,0.75 z M 93.891293,410.0895 q 2.171875,0 3.9375,0.98437 1.765625,0.98438 2.749997,2.78125 1,1.78125 1,4.0625 0,2.32813 -1,4.125 -0.984372,1.78125 -2.734372,2.76563 -1.75,0.96875 -3.953125,0.96875 -1.875,0 -3.390625,-0.76563 -1.5,-0.78125 -2.46875,-2.28125 v 8.59375 H 85.953793 V 410.2145 h 1.984375 v 3.04687 q 0.953125,-1.53125 2.484375,-2.34375 1.546875,-0.82812 3.46875,-0.82812 z m -0.140625,13.84375 q 1.609375,0 2.921875,-0.75 1.328125,-0.75 2.078125,-2.125 0.75,-1.375 0.75,-3.14063 0,-1.75 -0.75,-3.10937 -0.75,-1.375 -2.078125,-2.125 -1.3125,-0.76563 -2.921875,-0.76563 -1.640625,0 -2.953125,0.76563 -1.296875,0.75 -2.046875,2.125 -0.75,1.35937 -0.75,3.10937 0,1.76563 0.75,3.14063 0.75,1.375 2.046875,2.125 1.3125,0.75 2.953125,0.75 z m 25.509462,-5.35938 H 106.3695 q 0.17188,2.40625 1.84375,3.89063 1.67188,1.46875 4.21875,1.46875 1.4375,0 2.64063,-0.51563 1.20312,-0.51562 2.07812,-1.5 l 1.17188,1.34375 q -1.01563,1.23438 -2.5625,1.875 -1.53125,0.64063 -3.39063,0.64063 -2.375,0 -4.20312,-1 -1.82813,-1.01563 -2.85938,-2.79688 -1.03125,-1.79687 -1.03125,-4.0625 0,-2.25 0.98438,-4.03125 0.98437,-1.79687 2.70312,-2.79687 1.71875,-1 3.85938,-1 2.14062,0 3.82812,1 1.70313,1 2.67188,2.78125 0.96875,1.76562 0.96875,4.04687 z m -7.4375,-6.6875 q -2.23438,0 -3.75,1.42188 -1.5,1.42187 -1.70313,3.70312 h 10.9375 q -0.20312,-2.28125 -1.71875,-3.70312 -1.51562,-1.42188 -3.76562,-1.42188 z m 19.58917,-1.79687 q 2.90625,0 4.60937,1.6875 1.71875,1.6875 1.71875,4.92187 v 8.9375 H 135.6618 V 416.902 q 0,-2.40625 -1.20313,-3.67188 -1.20312,-1.26562 -3.4375,-1.26562 -2.48437,0 -3.93749,1.48437 -1.45313,1.48438 -1.45313,4.09375 v 8.09375 h -2.07812 V 410.2145 h 1.98437 v 2.84375 q 0.85938,-1.40625 2.35938,-2.1875 1.51562,-0.78125 3.51562,-0.78125 z"
               id="path4576" />
            <path
               style="fill:#ffffff;fill-rule:evenodd;filter:url(#filter4954)"
               inkscape:connector-curvature="0"
               d="M 142.50131,362.6299 H 86.123357 v 0 c -31.136684,0 -56.377953,23.43631 -56.377953,52.34647 0,28.91015 25.241268,52.34646 56.377953,52.34646 h 56.377953 z"
               id="path4574" />
          </g>
          <g
             id="g8ae0ad9bfe_0_840.4"
             style="fill:none;stroke:none;stroke-linecap:square;stroke-miterlimit:10"
             transform="translate(119.41276,-160.00105)">
            <path
               style="fill:#0097a7;fill-rule:evenodd;filter:url(#filter5026)"
               inkscape:connector-curvature="0"
               d="m 142.50157,386.6298 h 56.37796 v 0 c 31.13669,0 56.37794,23.43631 56.37794,52.34647 0,28.91015 -25.24125,52.34646 -56.37794,52.34646 h -56.37796 z"
               id="path4598" />
            <path
               style="fill:#ffffff;fill-rule:nonzero"
               inkscape:connector-curvature="0"
               d="m 156.7672,449.93314 q -3.10938,0 -5.625,-1.35938 -2.5,-1.375 -3.92188,-3.78125 -1.42187,-2.40625 -1.42187,-5.42187 0,-3.01563 1.4375,-5.42188 1.4375,-2.40625 3.9375,-3.76562 2.51562,-1.375 5.60937,-1.375 2.53125,0 4.60938,0.89062 2.07812,0.875 3.51562,2.54688 l -2.45312,2.3125 q -2.23438,-2.40625 -5.48438,-2.40625 -2.10937,0 -3.78125,0.9375 -1.67187,0.92187 -2.625,2.5625 -0.9375,1.64062 -0.9375,3.71875 0,2.07812 0.9375,3.73437 0.95313,1.64063 2.625,2.5625 1.67188,0.92188 3.78125,0.92188 3.25,0 5.48438,-2.4375 l 2.45312,2.34375 q -1.4375,1.67187 -3.53125,2.5625 -2.09375,0.875 -4.60937,0.875 z m 24.69403,-5.04688 H 171.1956 l -2.03125,4.75 h -3.92187 l 9.23437,-20.53125 h 3.75 l 9.26563,20.53125 h -3.98438 z m -1.26563,-3 -3.875,-8.96875 -3.84375,8.96875 z m 9.90426,-12.78125 h 8.98437 q 3.28125,0 5.82813,1.28125 2.5625,1.26563 3.96875,3.60938 1.40625,2.32812 1.40625,5.375 0,3.04687 -1.40625,5.39062 -1.40625,2.32813 -3.96875,3.60938 -2.54688,1.26562 -5.82813,1.26562 h -8.98437 z m 8.8125,17.3125 q 2.25,0 3.96875,-0.85937 1.71875,-0.875 2.64062,-2.46875 0.92188,-1.60938 0.92188,-3.71875 0,-2.10938 -0.92188,-3.70313 -0.92187,-1.60937 -2.64062,-2.46875 -1.71875,-0.85937 -3.96875,-0.85937 h -5 v 14.07812 z m 15.41252,-17.3125 h 8.98437 q 3.28125,0 5.82813,1.28125 2.5625,1.26563 3.96875,3.60938 1.40625,2.32812 1.40625,5.375 0,3.04687 -1.40625,5.39062 -1.40625,2.32813 -3.96875,3.60938 -2.54688,1.26562 -5.82813,1.26562 h -8.98437 z m 8.8125,17.3125 q 2.25,0 3.96875,-0.85937 1.71875,-0.875 2.64062,-2.46875 0.92188,-1.60938 0.92188,-3.71875 0,-2.10938 -0.92188,-3.70313 -0.92187,-1.60937 -2.64062,-2.46875 -1.71875,-0.85937 -3.96875,-0.85937 h -5 v 14.07812 z"
               id="path4600" />
          </g>
        </g>
      </g>
    </g>
  </g>
</svg>
